<svg xmlns="http://www.w3.org/2000/svg" width="1920" height="800" viewBox="0 0 1920 800">
  <defs>
    <linearGradient id="sky" x1="0" y1="0" x2="0" y2="1">
      <stop offset="0%" stop-color="#1a56db"/>
      <stop offset="100%" stop-color="#0d2f73"/>
    </linearGradient>
  </defs>
  <rect width="1920" height="800" fill="url(#sky)"/>
  <!-- House silhouette -->
  <rect x="560" y="300" width="800" height="500" rx="4" fill="#1a1a2e"/>
  <polygon points="560,300 960,100 1360,300" fill="#16213e"/>
  <!-- Windows -->
  <rect x="660" y="400" width="160" height="200" rx="3" fill="#e8f4fd" opacity="0.9"/>
  <rect x="680" y="420" width="120" height="75" fill="#1a56db" opacity="0.3"/>
  <rect x="680" y="505" width="120" height="75" fill="#1a56db" opacity="0.3"/>
  <rect x="960" y="400" width="160" height="200" rx="3" fill="#e8f4fd" opacity="0.9"/>
  <rect x="980" y="420" width="120" height="75" fill="#1a56db" opacity="0.3"/>
  <rect x="980" y="505" width="120" height="75" fill="#1a56db" opacity="0.3"/>
  <rect x="1100" y="400" width="160" height="200" rx="3" fill="#e8f4fd" opacity="0.9"/>
  <rect x="1120" y="420" width="120" height="75" fill="#1a56db" opacity="0.3"/>
  <rect x="1120" y="505" width="120" height="75" fill="#1a56db" opacity="0.3"/>
  <!-- Text overlay -->
  <text x="960" y="200" font-family="Arial,sans-serif" font-size="48" font-weight="bold" fill="white" text-anchor="middle">Ihre Fenster aus Meisterhand</text>
  <text x="960" y="255" font-family="Arial,sans-serif" font-size="24" fill="rgba(255,255,255,0.8)" text-anchor="middle">Kostenlose Beratung • Fachgerechte Montage • 5 Jahre Garantie</text>
</svg>
